<svg xmlns="http://www.w3.org/2000/svg" width="17" height="17" fill="none">
  <path fill="#99A7B9" d="M1.063 15.406c0 .88.713 1.594 1.593 1.594h11.688c.88 0 1.594-.714 1.594-1.594V6.375H1.062v9.031Zm10.624-6.508a.4.4 0 0 1 .399-.398h1.328a.4.4 0 0 1 .399.398v1.329a.4.4 0 0 1-.399.398h-1.328a.4.4 0 0 1-.399-.398V8.898Zm0 4.25a.4.4 0 0 1 .399-.398h1.328a.4.4 0 0 1 .399.398v1.329a.4.4 0 0 1-.399.398h-1.328a.4.4 0 0 1-.399-.398v-1.329Zm-4.25-4.25a.4.4 0 0 1 .399-.398h1.328a.4.4 0 0 1 .399.398v1.329a.4.4 0 0 1-.399.398H7.836a.4.4 0 0 1-.399-.398V8.898Zm0 4.25a.4.4 0 0 1 .399-.398h1.328a.4.4 0 0 1 .399.398v1.329a.4.4 0 0 1-.399.398H7.836a.4.4 0 0 1-.399-.398v-1.329Zm-4.25-4.25a.4.4 0 0 1 .399-.398h1.328a.4.4 0 0 1 .399.398v1.329a.4.4 0 0 1-.399.398H3.586a.4.4 0 0 1-.398-.398V8.898Zm0 4.25a.4.4 0 0 1 .399-.398h1.328a.4.4 0 0 1 .399.398v1.329a.4.4 0 0 1-.399.398H3.586a.4.4 0 0 1-.398-.398v-1.329ZM14.345 2.125H12.75V.531A.533.533 0 0 0 12.219 0h-1.063a.533.533 0 0 0-.531.531v1.594h-4.25V.531A.533.533 0 0 0 5.844 0H4.78a.533.533 0 0 0-.531.531v1.594H2.656c-.88 0-1.594.714-1.594 1.594v1.594h14.876V3.718c0-.88-.714-1.594-1.594-1.594Z"/>
</svg>
