<svg xmlns="http://www.w3.org/2000/svg" aria-hidden="true" style="position:absolute;width:0;height:0;overflow:hidden">
  <defs>
    <symbol id="icon-modal-close" viewBox="0 0 32 32">
      <path d="m18.504 15.999 7.637-7.62a1.784 1.784 0 0 0-2.523-2.522l-7.619 7.637L8.38 5.857A1.784 1.784 0 0 0 5.857 8.38L13.494 16l-7.637 7.62c-.325.322-.526.768-.526 1.261s.201.94.526 1.261a1.77 1.77 0 0 0 2.522 0l7.619-7.639 7.62 7.639c.322.325.768.526 1.261.526s.939-.201 1.261-.526c.324-.322.525-.768.525-1.261s-.201-.939-.525-1.261l-7.637-7.619z" opacity=".7" style="fill:var(--color1, #5e6e82)"/>
    </symbol>
    <symbol id="icon-pen" viewBox="0 0 32 32">
<path d="M31.117 8.88l-2.88 2.88c-0.136 0.136-0.324 0.22-0.531 0.22s-0.395-0.084-0.531-0.22v0l-6.938-6.931c-0.136-0.136-0.22-0.324-0.22-0.531s0.084-0.395 0.22-0.531v0l2.88-2.88c0.544-0.541 1.294-0.876 2.122-0.876s1.578 0.335 2.122 0.876l3.757 3.753c0.544 0.542 0.881 1.293 0.881 2.122s-0.337 1.579-0.881 2.121l-0 0zM17.76 6.24l-16.413 16.41-1.325 7.59c-0.014 0.077-0.022 0.165-0.022 0.255 0 0.831 0.673 1.504 1.504 1.504 0.090 0 0.179-0.008 0.265-0.023l-0.009 0.001 7.594-1.331 16.416-16.413c0.136-0.136 0.22-0.324 0.22-0.531s-0.084-0.395-0.22-0.531v0l-6.944-6.934c-0.137-0.136-0.326-0.22-0.534-0.22s-0.397 0.084-0.534 0.22l0-0zM7.754 21.248c-0.16-0.158-0.259-0.377-0.259-0.619s0.099-0.461 0.259-0.619l9.626-9.626c0.158-0.16 0.377-0.259 0.619-0.259s0.461 0.099 0.619 0.259l0 0c0.16 0.158 0.259 0.377 0.259 0.619s-0.099 0.461-0.259 0.619l-9.626 9.619c-0.158 0.16-0.377 0.259-0.619 0.259s-0.461-0.099-0.619-0.259l-0-0zM5.498 26.496h3.002v2.269l-4.032 0.704-1.942-1.942 0.704-4.032h2.272v3.002z"></path>
</symbol>
<symbol id="icon-expiring" viewBox="0 0 32 32">
<path fill="#f90" style="fill: var(--color1, #f90)" d="M6.418 27.25h19.179c1.518-0 2.748-1.231 2.748-2.748 0-0.502-0.134-0.972-0.369-1.377l0.007 0.013-9.582-16.756c-0.482-0.833-1.369-1.384-2.385-1.384s-1.903 0.551-2.378 1.371l-0.007 0.013-9.595 16.752c-0.228 0.392-0.363 0.863-0.363 1.365 0 1.518 1.231 2.748 2.748 2.748 0 0 0 0 0 0h-0zM16.004 12.864c0.491 0 0.889 0.398 0.889 0.889v0 4.133c0 0.491-0.398 0.889-0.889 0.889s-0.889-0.398-0.889-0.889v0-4.133c0-0.491 0.398-0.889 0.889-0.889v0zM15.993 21.111c-0.491 0-0.889 0.398-0.889 0.889s0.398 0.889 0.889 0.889v0h0.014c0.491 0 0.889-0.398 0.889-0.889s-0.398-0.889-0.889-0.889v0h-0.014z"></path>
</symbol>
<symbol id="icon-overdue" viewBox="0 0 32 32">
<path fill="#fd0000" style="fill: var(--color2, #fd0000)" d="M9.749 30.222c-3.959-10.418 4.405-14.222 4.405-14.222-0.587 5.559 3.371 9.89 3.371 9.89 1.454-0.35 4.231-1.989 4.231-1.989 0 1.989-1.465 6.318-1.465 6.318s5.129-3.168 6.743-8.427c1.612-5.262-3.072-10.546-3.072-10.546 0.283 3.724-1.294 7.387-4.384 10.187 0.155-0.144 0.284-0.302 0.384-0.473 0.555-0.889 1.445-3.193 0.924-8.53-0.736-7.493-9.234-10.652-9.234-10.652 0.732 4.565-1.465 5.618-6.61 14.283-5.145 8.663 4.706 14.162 4.706 14.162z"></path>
</symbol>
<symbol id="icon-future" viewBox="0 0 32 32">
<path fill="#88d23b" style="fill: var(--color4, #88d23b)" d="M10.222 3.668h11.556c4.041 0 6.556 2.852 6.556 6.887v10.891c0 4.036-2.516 6.889-6.556 6.889h-11.556c-4.041 0-6.555-2.853-6.555-6.889v-10.891c0-4.036 2.524-6.887 6.553-6.887zM21.376 13.463c0.154-0.16 0.249-0.377 0.249-0.617 0-0.491-0.398-0.889-0.889-0.889-0.241 0-0.459 0.095-0.619 0.251l-5.699 5.699-2.537-2.535c-0.16-0.154-0.377-0.25-0.618-0.25-0.491 0-0.889 0.398-0.889 0.889 0 0.24 0.095 0.458 0.25 0.618l3.164 3.164c0.161 0.161 0.383 0.261 0.629 0.261s0.468-0.1 0.629-0.261l6.329-6.329z"></path>
</symbol>
<symbol id="icon-calendar" viewBox="0 0 32 32">
<path d="M2.001 29c0 1.656 1.342 3 2.999 3h22.001c1.656 0 3-1.344 3-3v-17h-28.002v17zM21.999 16.749c0.002-0.414 0.337-0.748 0.751-0.749h2.5c0.414 0.001 0.749 0.336 0.751 0.749v2.502c-0.002 0.414-0.337 0.748-0.751 0.749h-2.5c-0.414-0.001-0.749-0.336-0.751-0.749v-2.502zM21.999 24.749c0.002-0.414 0.337-0.748 0.751-0.749h2.5c0.414 0.001 0.749 0.336 0.751 0.749v2.502c-0.002 0.414-0.337 0.748-0.751 0.749h-2.5c-0.414-0.001-0.749-0.336-0.751-0.749v-2.502zM13.999 16.749c0.002-0.414 0.337-0.748 0.751-0.749h2.5c0.414 0.001 0.749 0.336 0.751 0.749v2.502c-0.002 0.414-0.337 0.748-0.751 0.749h-2.5c-0.414-0.001-0.749-0.336-0.751-0.749v-2.502zM13.999 24.749c0.002-0.414 0.337-0.748 0.751-0.749h2.5c0.414 0.001 0.749 0.336 0.751 0.749v2.502c-0.002 0.414-0.337 0.748-0.751 0.749h-2.5c-0.414-0.001-0.749-0.336-0.751-0.749v-2.502zM5.999 16.749c0.002-0.414 0.337-0.748 0.751-0.749h2.5c0.414 0.001 0.749 0.336 0.751 0.749v2.502c-0.002 0.414-0.337 0.748-0.751 0.749h-2.5c-0.413-0.002-0.747-0.336-0.749-0.749v-2.502zM5.999 24.749c0.002-0.414 0.337-0.748 0.751-0.749h2.5c0.414 0.001 0.749 0.336 0.751 0.749v2.502c-0.002 0.414-0.337 0.748-0.751 0.749h-2.5c-0.413-0.002-0.747-0.336-0.749-0.749v-2.502zM27.002 4h-3.002v-3c-0.002-0.551-0.448-0.997-0.999-1h-2.001c-0.551 0.002-0.997 0.448-1 0.999v3.001h-8v-3c-0.002-0.551-0.448-0.997-0.999-1h-2.003c-0.551 0.002-0.997 0.448-1 0.999v3.001h-2.999c-1.656 0-3 1.344-3 3v3h28.002v-3.002c0-1.656-1.344-3-3-3z"></path>
</symbol>
<symbol id="icon-arrow-left" viewBox="0 0 32 32">
<path fill="none" stroke="#5e6e82" style="stroke: var(--color1, #5e6e82)" stroke-linejoin="round" stroke-linecap="round" stroke-miterlimit="4" stroke-width="2.4" d="M6.666 16h18.668M6.666 16l8 8M6.666 16l8-8"></path>
</symbol>
<symbol id="icon-arrow-right" viewBox="0 0 32 32">
<path fill="none" stroke="#5e6e82" style="stroke: var(--color1, #5e6e82)" stroke-linejoin="round" stroke-linecap="round" stroke-miterlimit="4" stroke-width="2.4" d="M6.666 16h18.668M17.334 24l8-8M17.334 8l8 8"></path>
</symbol>
<symbol id="icon-check" viewBox="0 0 32 32">
<path fill="#fd5000" style="fill: var(--color1, #fd5000)" d="M25.472 7.941c0.266-0.271 0.637-0.439 1.047-0.439s0.78 0.168 1.046 0.439l0 0c0.268 0.273 0.434 0.647 0.434 1.060 0 0.402-0.157 0.768-0.413 1.039l0.001-0.001-11.827 13.981c-0.269 0.295-0.655 0.479-1.084 0.479-0.41 0-0.78-0.168-1.046-0.439l-0-0-7.195-7.293c-0.266-0.273-0.43-0.646-0.43-1.057 0-0.618 0.37-1.149 0.9-1.385l0.010-0.004c0.167-0.072 0.362-0.114 0.567-0.114 0.41 0 0.78 0.168 1.046 0.439l0 0 6.104 6.187 10.8-12.851c0.013-0.015 0.026-0.029 0.040-0.042l0-0z"></path>
</symbol>
<symbol id="icon-pending-issues" viewBox="0 0 32 32">
<path fill="#fff" style="fill: var(--color2, #fff); stroke: var(--color3, #d8e2ef)" stroke="#d8e2ef" stroke-linejoin="miter" stroke-linecap="butt" stroke-miterlimit="4" stroke-width="1.1429" d="M6.857 0.571h18.286c3.471 0 6.286 2.814 6.286 6.286v18.286c0 3.471-2.814 6.286-6.286 6.286h-18.286c-3.471 0-6.286-2.814-6.286-6.286v-18.286c0-3.471 2.814-6.286 6.286-6.286z"></path>
<path fill="none" stroke="#fd5000" style="stroke: var(--color1, #fd5000)" stroke-linejoin="round" stroke-linecap="round" stroke-miterlimit="4" stroke-width="1.6" d="M18.032 20.29h-5.592M21.079 16.038h-8.638M16.507 11.794h-4.066"></path>
<path fill="none" stroke="#fd5000" style="stroke: var(--color1, #fd5000)" stroke-linejoin="round" stroke-linecap="round" stroke-miterlimit="4" stroke-width="1.6" d="M20.198 6.857l-8.437 0.003c-3.030 0.017-4.904 1.822-4.904 4.571v9.135c0 2.766 1.889 4.576 4.944 4.576l8.437-0.003c3.029-0.016 4.905-1.821 4.905-4.571v-9.135c0-2.766-1.89-4.576-4.945-4.576z"></path>
</symbol>
<symbol id="icon-pending-issues-activ" viewBox="0 0 32 32">
<path fill="#fd5000" style="fill: var(--color1, #fd5000)" d="M6.857 0h18.286c3.787 0 6.857 3.070 6.857 6.857v18.286c0 3.787-3.070 6.857-6.857 6.857h-18.286c-3.787 0-6.857-3.070-6.857-6.857v-18.286c0-3.787 3.070-6.857 6.857-6.857z"></path>
<path fill="none" stroke="#fff" style="stroke: var(--color2, #fff)" stroke-linejoin="round" stroke-linecap="round" stroke-miterlimit="4" stroke-width="1.6" d="M18.032 20.29h-5.592M21.079 16.038h-8.638M16.509 11.794h-4.069"></path>
<path fill="none" stroke="#fff" style="stroke: var(--color2, #fff)" stroke-linejoin="round" stroke-linecap="round" stroke-miterlimit="4" stroke-width="1.6" d="M20.198 6.857l-8.437 0.003c-3.030 0.017-4.904 1.822-4.904 4.571v9.135c0 2.766 1.889 4.576 4.944 4.576l8.437-0.003c3.029-0.016 4.905-1.821 4.905-4.571v-9.135c0-2.766-1.89-4.576-4.945-4.576z"></path>
</symbol>
<symbol id="icon-pending-issues-smoll" viewBox="0 0 32 32">
<path d="M19.161 22.674h-8.699M23.9 16.059h-13.438M16.789 9.458h-6.325"></path>
<path d="M22.53 1.778l-13.124 0.005c-4.713 0.027-7.628 2.834-7.628 7.111v14.21c0 4.302 2.939 7.118 7.691 7.118l13.124-0.005c4.711-0.025 7.63-2.834 7.63-7.111v-14.212c0-4.3-2.94-7.116-7.692-7.116z"></path>
</symbol>
<symbol id="icon-pending-issues-two" viewBox="0 0 32 32">
<path fill="none" stroke-linejoin="round" stroke-linecap="round" stroke-miterlimit="4" stroke-width="2.4889" d="M19.161 22.674h-8.699M23.9 16.059h-13.438M16.789 9.458h-6.325"></path>
<path fill="none" stroke-linejoin="round" stroke-linecap="round" stroke-miterlimit="4" stroke-width="2.4889" d="M22.53 1.778l-13.124 0.005c-4.713 0.027-7.628 2.834-7.628 7.111v14.21c0 4.302 2.939 7.118 7.691 7.118l13.124-0.005c4.711-0.025 7.63-2.834 7.63-7.111v-14.212c0-4.3-2.94-7.116-7.692-7.116z"></path>
</symbol>
<symbol id="icon-goeicon" viewBox="0 0 32 32">
<path fill="#fff" style="fill: var(--color1, #fff)" d="M16 0c8.837 0 16 7.163 16 16s-7.163 16-16 16c-8.837 0-16-7.163-16-16s7.163-16 16-16z"></path>
<path fill="#000" style="fill: var(--color2, #000)" d="M16 0c8.837 0 16 7.163 16 16s-7.163 16-16 16c-8.837 0-16-7.163-16-16s7.163-16 16-16z"></path>
</symbol>
<symbol id="icon-ezicon" viewBox="0 0 32 32">
<path d="M0 0h32v32h-32z"></path>
</symbol>
<symbol id="icon-select-up" viewBox="0 0 56 32">
<path d="M30.176 0.848l24.92 23.472c1.2 1.136 1.2 2.968 0 4.104l-2.904 2.736c-0.57 0.523-1.334 0.844-2.172 0.844s-1.602-0.321-2.174-0.846l0.002 0.002-19.848-18.6-19.856 18.592c-0.57 0.523-1.334 0.844-2.172 0.844s-1.602-0.321-2.174-0.846l0.002 0.002-2.904-2.736c-0.556-0.511-0.903-1.241-0.903-2.052s0.347-1.541 0.901-2.050l0.002-0.002 24.928-23.464c0.571-0.526 1.336-0.848 2.176-0.848s1.605 0.322 2.178 0.85l-0.002-0.002z"></path>
</symbol>
<symbol id="icon-view" viewBox="0 0 32 32">
<path fill="#5e6e82" style="fill: var(--color1, #5e6e82)" opacity="0.7" d="M17.462 23.952c-0.001 0.808-0.656 1.462-1.464 1.462 0 0 0 0 0 0h-6.312c-0.785-0.030-1.41-0.673-1.41-1.463s0.625-1.433 1.407-1.463l0.003-0h6.312c0.81 0 1.464 0.654 1.464 1.464z"></path>
<path fill="#5e6e82" style="fill: var(--color1, #5e6e82)" opacity="0.7" d="M4.92 23.948c0 0.806-0.654 1.46-1.46 1.46s-1.46-0.654-1.46-1.46c0-0.806 0.654-1.46 1.46-1.46s1.46 0.654 1.46 1.46z"></path>
<path fill="#5e6e82" style="fill: var(--color1, #5e6e82)" opacity="0.7" d="M30.944 15.168c0 0.809-0.655 1.464-1.464 1.464v0h-19.794c-0.785-0.030-1.41-0.673-1.41-1.463s0.625-1.433 1.407-1.463l0.003-0h19.794c0.808 0 1.464 0.654 1.464 1.462z"></path>
<path fill="#5e6e82" style="fill: var(--color1, #5e6e82)" opacity="0.7" d="M4.92 15.166c0 0.806-0.654 1.46-1.46 1.46s-1.46-0.654-1.46-1.46c0-0.806 0.654-1.46 1.46-1.46s1.46 0.654 1.46 1.46z"></path>
<path fill="#5e6e82" style="fill: var(--color1, #5e6e82)" opacity="0.7" d="M24.538 6.386c0 0.809-0.655 1.464-1.464 1.464v0h-13.388c-0.809 0-1.464-0.655-1.464-1.464s0.655-1.464 1.464-1.464v0h13.388c0.808 0 1.464 0.656 1.464 1.464z"></path>
<path fill="#5e6e82" style="fill: var(--color1, #5e6e82)" opacity="0.7" d="M4.92 6.382c0 0.806-0.654 1.46-1.46 1.46s-1.46-0.654-1.46-1.46c0-0.806 0.654-1.46 1.46-1.46s1.46 0.654 1.46 1.46z"></path>
</symbol>
<symbol id="icon-advanced" viewBox="0 0 30 32">
<path d="M27.733 26.786h-18.49M0 5.214v0zM27.733 5.214v0zM0 16v0zM27.733 16v0zM0 26.786v0zM9.244 8.297c1.702 0 3.082-1.38 3.082-3.082s-1.38-3.082-3.082-3.082v0c-1.702 0-3.082 1.38-3.082 3.082s1.38 3.082 3.082 3.082v0zM21.57 19.081c1.701 0 3.081-1.379 3.081-3.081s-1.379-3.081-3.081-3.081v0c-1.701 0-3.081 1.379-3.081 3.081s1.379 3.081 3.081 3.081v0zM6.163 29.867c1.702 0 3.082-1.38 3.082-3.082s-1.38-3.082-3.082-3.082v0c-1.702 0-3.082 1.38-3.082 3.082s1.38 3.082 3.082 3.082v0z"></path>
</symbol>
  </defs>
</svg>
