<svg xmlns="http://www.w3.org/2000/svg" aria-hidden="true" style="position:absolute;width:0;height:0;overflow:hidden">
  <defs>
    <symbol id="icon-modal-close" viewBox="0 0 32 32">
      <path d="m18.504 15.999 7.637-7.62a1.784 1.784 0 0 0-2.523-2.522l-7.619 7.637L8.38 5.857A1.784 1.784 0 0 0 5.857 8.38L13.494 16l-7.637 7.62c-.325.322-.526.768-.526 1.261s.201.94.526 1.261a1.77 1.77 0 0 0 2.522 0l7.619-7.639 7.62 7.639c.322.325.768.526 1.261.526s.939-.201 1.261-.526c.324-.322.525-.768.525-1.261s-.201-.939-.525-1.261l-7.637-7.619z" opacity=".7" style="fill:var(--color1, #5e6e82)"/>
    </symbol>
  </defs>
</svg>
