<svg xmlns="http://www.w3.org/2000/svg" width="10" height="10" fill="none">
  <path fill="#FD5000" d="m9.724 2.775-.9.9a.235.235 0 0 1-.332 0L6.324 1.509a.235.235 0 0 1 0-.332l.9-.9a.94.94 0 0 1 1.326 0l1.174 1.173a.936.936 0 0 1 0 1.326ZM5.55 1.95.421 7.078.007 9.45a.47.47 0 0 0 .543.543l2.373-.416 5.13-5.129a.235.235 0 0 0 0-.332L5.883 1.949a.237.237 0 0 0-.334 0Zm-3.127 4.69a.272.272 0 0 1 0-.387l3.008-3.008a.272.272 0 0 1 .387 0 .272.272 0 0 1 0 .387L2.81 6.638a.272.272 0 0 1-.387 0ZM1.718 8.28h.938v.709l-1.26.22-.607-.607.22-1.26h.71v.938Z"/>
</svg>
