<svg xmlns="http://www.w3.org/2000/svg" aria-hidden="true" style="width:0;height:0;position:absolute;overflow:hidden"><defs><symbol id="icon-modal-close" viewBox="0 0 32 32"><path d="m18.504 15.999 7.637-7.62a1.784 1.784 0 0 0-2.523-2.522l-7.619 7.637L8.38 5.857A1.784 1.784 0 0 0 5.857 8.38L13.494 16l-7.637 7.62c-.325.322-.526.768-.526 1.261s.201.94.526 1.261a1.77 1.77 0 0 0 2.522 0l7.619-7.639 7.62 7.639c.322.325.768.526 1.261.526s.939-.201 1.261-.526c.324-.322.525-.768.525-1.261s-.201-.939-.525-1.261l-7.637-7.619z" opacity=".7" style="fill:var(--color1,#5e6e82)"/></symbol><symbol id="icon-pen" viewBox="0 0 32 32"><path d="m31.117 8.88-2.88 2.88a.749.749 0 0 1-1.062 0l-6.938-6.931a.749.749 0 0 1 0-1.062l2.88-2.88a3 3 0 0 1 2.122-.876 3 3 0 0 1 2.122.876l3.757 3.753c.544.542.881 1.293.881 2.122s-.337 1.579-.881 2.121zM17.76 6.24 1.347 22.65.022 30.24a1.504 1.504 0 0 0 1.747 1.736l-.009.001 7.594-1.331L25.77 14.233a.749.749 0 0 0 0-1.062l-6.944-6.934a.756.756 0 0 0-1.068 0zM7.754 21.248a.867.867 0 0 1 0-1.238l9.626-9.626a.867.867 0 0 1 1.238 0 .867.867 0 0 1 0 1.238l-9.626 9.619a.867.867 0 0 1-1.238 0zm-2.256 5.248H8.5v2.269l-4.032.704-1.942-1.942.704-4.032h2.272v3.002z"/></symbol><symbol id="icon-expiring" viewBox="0 0 32 32"><path fill="#f90" style="fill:var(--color1,#f90)" d="M6.418 27.25h19.179a2.748 2.748 0 0 0 2.379-4.125l.007.013-9.582-16.756a2.75 2.75 0 0 0-4.763-.013l-.007.013-9.595 16.752a2.748 2.748 0 0 0 2.385 4.113zm9.586-14.386c.491 0 .889.398.889.889v4.133a.889.889 0 1 1-1.778 0v-4.133c0-.491.398-.889.889-.889zm-.011 8.247a.889.889 0 1 0 0 1.778h.014a.889.889 0 1 0 0-1.778h-.014z"/></symbol><symbol id="icon-overdue" viewBox="0 0 32 32"><path fill="#fd0000" style="fill:var(--color2,#fd0000)" d="M9.749 30.222C5.79 19.804 14.154 16 14.154 16c-.587 5.559 3.371 9.89 3.371 9.89 1.454-.35 4.231-1.989 4.231-1.989 0 1.989-1.465 6.318-1.465 6.318s5.129-3.168 6.743-8.427c1.612-5.262-3.072-10.546-3.072-10.546.283 3.724-1.294 7.387-4.384 10.187.155-.144.284-.302.384-.473.555-.889 1.445-3.193.924-8.53-.736-7.493-9.234-10.652-9.234-10.652.732 4.565-1.465 5.618-6.61 14.283-5.145 8.663 4.706 14.162 4.706 14.162z"/></symbol><symbol id="icon-future" viewBox="0 0 32 32"><path fill="#88d23b" style="fill:var(--color4,#88d23b)" d="M10.222 3.668h11.556c4.041 0 6.556 2.852 6.556 6.887v10.891c0 4.036-2.516 6.889-6.556 6.889H10.222c-4.041 0-6.555-2.853-6.555-6.889V10.555c0-4.036 2.524-6.887 6.553-6.887zm11.154 9.795a.889.889 0 0 0-1.259-1.255l-5.699 5.699-2.537-2.535a.888.888 0 0 0-1.257 1.257l3.164 3.164a.886.886 0 0 0 1.258 0l6.329-6.329z"/></symbol><symbol id="icon-calendar" viewBox="0 0 32 32"><path d="M2.001 29A3 3 0 0 0 5 32h22.001c1.656 0 3-1.344 3-3V12H1.999v17zm19.998-12.251A.752.752 0 0 1 22.75 16h2.5a.753.753 0 0 1 .751.749v2.502a.752.752 0 0 1-.751.749h-2.5a.753.753 0 0 1-.751-.749v-2.502zm0 8A.752.752 0 0 1 22.75 24h2.5a.753.753 0 0 1 .751.749v2.502a.752.752 0 0 1-.751.749h-2.5a.753.753 0 0 1-.751-.749v-2.502zm-8-8A.752.752 0 0 1 14.75 16h2.5a.753.753 0 0 1 .751.749v2.502a.752.752 0 0 1-.751.749h-2.5a.753.753 0 0 1-.751-.749v-2.502zm0 8A.752.752 0 0 1 14.75 24h2.5a.753.753 0 0 1 .751.749v2.502a.752.752 0 0 1-.751.749h-2.5a.753.753 0 0 1-.751-.749v-2.502zm-8-8A.752.752 0 0 1 6.75 16h2.5a.753.753 0 0 1 .751.749v2.502A.752.752 0 0 1 9.25 20h-2.5a.752.752 0 0 1-.749-.749v-2.502zm0 8A.752.752 0 0 1 6.75 24h2.5a.753.753 0 0 1 .751.749v2.502A.752.752 0 0 1 9.25 28h-2.5a.752.752 0 0 1-.749-.749v-2.502zM27.002 4H24V1a1.004 1.004 0 0 0-.999-1H21a1.004 1.004 0 0 0-1 .999V4h-8V1a1.004 1.004 0 0 0-.999-1H8.998a1.004 1.004 0 0 0-1 .999V4H4.999c-1.656 0-3 1.344-3 3v3h28.002V6.998c0-1.656-1.344-3-3-3z"/></symbol><symbol id="icon-arrow-left" viewBox="0 0 32 32"><path fill="none" stroke="#5e6e82" style="stroke:var(--color1,#5e6e82)" stroke-linejoin="round" stroke-linecap="round" stroke-width="2.4" d="M6.666 16h18.668M6.666 16l8 8m-8-8 8-8"/></symbol><symbol id="icon-arrow-right" viewBox="0 0 32 32"><path fill="none" stroke="#5e6e82" style="stroke:var(--color1,#5e6e82)" stroke-linejoin="round" stroke-linecap="round" stroke-width="2.4" d="M6.666 16h18.668m-8 8 8-8m-8-8 8 8"/></symbol><symbol id="icon-check" viewBox="0 0 32 32"><path fill="#fd5000" style="fill:var(--color1,#fd5000)" d="M25.472 7.941a1.463 1.463 0 0 1 2.093 0 1.509 1.509 0 0 1 .021 2.099l.001-.001L15.76 24.02a1.462 1.462 0 0 1-2.13.04l-7.195-7.293a1.516 1.516 0 0 1 .47-2.442l.01-.004a1.46 1.46 0 0 1 1.613.325l6.104 6.187 10.8-12.851a.533.533 0 0 1 .04-.042z"/></symbol><symbol id="icon-pending-issues" viewBox="0 0 32 32"><path fill="#fff" style="fill:var(--color2,#fff);stroke:var(--color3,#d8e2ef)" stroke="#d8e2ef" stroke-width="1.143" d="M6.857.571h18.286a6.286 6.286 0 0 1 6.286 6.286v18.286a6.286 6.286 0 0 1-6.286 6.286H6.857a6.286 6.286 0 0 1-6.286-6.286V6.857A6.286 6.286 0 0 1 6.857.571z"/><path fill="none" stroke="#fd5000" style="stroke:var(--color1,#fd5000)" stroke-linejoin="round" stroke-linecap="round" stroke-width="1.6" d="M18.032 20.29H12.44m8.639-4.252h-8.638m4.066-4.244h-4.066M20.198 6.857l-8.437.003c-3.03.017-4.904 1.822-4.904 4.571v9.135c0 2.766 1.889 4.576 4.944 4.576l8.437-.003c3.029-.016 4.905-1.821 4.905-4.571v-9.135c0-2.766-1.89-4.576-4.945-4.576z"/></symbol><symbol id="icon-pending-issues-activ" viewBox="0 0 32 32"><path fill="#fd5000" style="fill:var(--color1,#fd5000)" d="M6.857 0h18.286A6.857 6.857 0 0 1 32 6.857v18.286A6.857 6.857 0 0 1 25.143 32H6.857A6.857 6.857 0 0 1 0 25.143V6.857A6.857 6.857 0 0 1 6.857 0z"/><path fill="none" stroke="#fff" style="stroke:var(--color2,#fff)" stroke-linejoin="round" stroke-linecap="round" stroke-width="1.6" d="M18.032 20.29H12.44m8.639-4.252h-8.638m4.068-4.244H12.44M20.198 6.857l-8.437.003c-3.03.017-4.904 1.822-4.904 4.571v9.135c0 2.766 1.889 4.576 4.944 4.576l8.437-.003c3.029-.016 4.905-1.821 4.905-4.571v-9.135c0-2.766-1.89-4.576-4.945-4.576z"/></symbol><symbol id="icon-pending-issues-smoll" viewBox="0 0 32 32"><path d="M19.161 22.674h-8.699M23.9 16.059H10.462m6.327-6.601h-6.325M22.53 1.778l-13.124.005c-4.713.027-7.628 2.834-7.628 7.111v14.21c0 4.302 2.939 7.118 7.691 7.118l13.124-.005c4.711-.025 7.63-2.834 7.63-7.111V8.894c0-4.3-2.94-7.116-7.692-7.116z"/></symbol><symbol id="icon-pending-issues-two" viewBox="0 0 32 32"><path fill="none" stroke-linejoin="round" stroke-linecap="round" stroke-width="2.489" d="M19.161 22.674h-8.699M23.9 16.059H10.462m6.327-6.601h-6.325M22.53 1.778l-13.124.005c-4.713.027-7.628 2.834-7.628 7.111v14.21c0 4.302 2.939 7.118 7.691 7.118l13.124-.005c4.711-.025 7.63-2.834 7.63-7.111V8.894c0-4.3-2.94-7.116-7.692-7.116z"/></symbol><symbol id="icon-goeicon" viewBox="0 0 32 32"><path fill="#fff" style="fill:var(--color1,#fff)" d="M16 0c8.837 0 16 7.163 16 16s-7.163 16-16 16S0 24.837 0 16 7.163 0 16 0z"/><path style="fill:var(--color2,#000)" d="M16 0c8.837 0 16 7.163 16 16s-7.163 16-16 16S0 24.837 0 16 7.163 0 16 0z"/></symbol><symbol id="icon-ezicon" viewBox="0 0 32 32"><path d="M0 0h32v32H0z"/></symbol><symbol id="icon-select-up" viewBox="0 0 56 32"><path d="m30.176.848 24.92 23.472a2.79 2.79 0 0 1 0 4.104l-2.904 2.736c-.57.523-1.334.844-2.172.844s-1.602-.321-2.174-.846l.002.002L28 12.56 8.144 31.152c-.57.523-1.334.844-2.172.844s-1.602-.321-2.174-.846l.002.002-2.904-2.736c-.556-.511-.903-1.241-.903-2.052s.347-1.541.901-2.05l.002-.002L25.824.848C26.395.322 27.16 0 28 0s1.605.322 2.178.85l-.002-.002z"/></symbol></defs></svg>